# xmcd CD database file
#
# Track frame offsets:
#	150
#	16917
#	25007
#	43667
#	97652
#	149365
#	191217
#	231483
#	268597
#	291738
#
# Disc length: 4198 seconds
#
# Revision: 1
# Processed by: cddbd v1.5.2PL0 Copyright (c) Steve Scherf et al.
# Submitted via: CDex 1.51
#
DISCID=8f10640a
DTITLE=Paul Personne - A L'Ouest - Electric Rendez-Vous - CD2
DYEAR=2015
DGENRE=Blues
TTITLE0=Plus Loin d'Ici (Live)
TTITLE1=Flashes (Live)
TTITLE2=Quelqu'un Appelle (Live)
TTITLE3=Faire Semblant (Live)
TTITLE4=Faut Qu'j'me Laisse Aller (Live)
TTITLE5=J'ai Essayé (Live)
TTITLE6=Barjoland (Live)
TTITLE7=Ou Etais-tu ? (Live)
TTITLE8=Ca Fait Mal (Live)
TTITLE9=C'est La Vie Qui M'a Fait Comme Ca (Live)
EXTD=YEAR: 2015
EXTT0=
EXTT1=
EXTT2=
EXTT3=
EXTT4=
EXTT5=
EXTT6=
EXTT7=
EXTT8=
EXTT9=
PLAYORDER=
